<?xml version="1.0" encoding="UTF-8"?>
<svg xmlns="http://www.w3.org/2000/svg" xmlns:xlink="http://www.w3.org/1999/xlink" version="1.1" id="Layer_1" x="0px" y="0px" width="100%" viewBox="0 0 798 313" enable-background="new 0 0 798 313" xml:space="preserve" style="background: transparent;">

<path fill="#A0AB84" opacity="1.000000" stroke="none" d=" M173.205383,85.976997   C182.841980,85.987244 192.043991,85.461700 201.153748,86.152634   C211.003448,86.899696 221.028351,87.103439 230.217346,91.973328   C239.439316,96.860687 245.013962,104.399071 246.839600,114.314568   C249.210617,127.192200 248.988007,140.098785 243.986176,152.524963   C241.077118,159.751953 236.330048,165.214294 228.881775,168.057205   C224.344284,169.789124 223.669739,171.583771 226.894150,175.276978   C232.015106,181.142471 237.451233,186.738388 242.866028,192.340073   C247.930618,197.579468 248.272659,200.396332 244.208145,206.439148   C241.626099,210.277939 236.508194,211.171936 231.126175,209.071854   C221.855301,205.454346 215.295654,198.874832 210.233765,190.558319   C209.811508,189.864563 209.442322,189.134491 208.973648,188.474457   C208.691315,188.076828 208.264191,187.782028 207.547287,187.106796   C207.016937,192.335632 206.610184,197.267776 205.994186,202.173660   C205.305527,207.658340 201.099396,211.655136 195.489502,211.941025   C190.803619,212.179810 186.096237,211.995361 181.398376,212.000961   C177.567245,212.005524 173.730927,212.144653 169.906052,211.993195   C162.201248,211.688095 156.145325,208.160736 156.008636,198.302338   C155.665466,173.550812 155.329544,148.799164 155.030853,124.047081   C154.950470,117.385117 155.219650,110.713593 154.966949,104.060188   C154.488693,91.469078 160.042847,86.560905 173.205383,85.976997  M221.362198,107.871605   C215.692490,107.008850 210.022781,106.146095 203.505981,105.154434   C204.397568,121.595284 205.171677,136.431198 206.079559,151.258926   C206.135803,152.177490 207.053421,153.496002 207.893646,153.841141   C213.754120,156.248199 224.193848,151.381439 225.984360,145.067657   C229.583969,132.374573 229.700745,119.914330 221.362198,107.871605  z"/>
<path fill="#798463" opacity="1.000000" stroke="none" d=" M735.249695,172.602936   C738.369446,182.178940 741.107727,191.459442 744.354126,200.558655   C745.955933,205.048050 744.432251,208.028214 741.026550,210.334473   C737.391785,212.795837 733.248169,211.834335 730.812927,208.970856   C727.606812,205.200867 724.961670,200.673691 723.174255,196.047485   C720.885864,190.124893 719.922119,183.705414 717.970154,177.634277   C715.257019,169.195816 712.488159,167.787445 703.869324,167.104645   C692.640442,166.215103 691.418213,167.410873 688.408569,178.203674   C686.603271,184.677597 684.604675,191.110992 683.134094,197.661621   C681.104492,206.702393 671.317261,213.346848 661.946350,210.297211   C657.871643,208.971146 653.023438,210.002411 648.526489,209.997055   C635.282043,209.981262 629.775818,202.971115 632.035278,189.916443   C635.736206,168.533722 642.782410,148.143936 649.618835,127.664391   C652.051208,120.378151 654.112610,112.952438 656.001099,105.503647   C659.697815,90.922684 666.184082,85.804291 681.221130,85.966789   C687.433655,86.033928 693.662231,86.281792 699.856018,85.943352   C705.728149,85.622482 709.573547,88.433640 711.545837,93.338921   C715.324463,102.736847 719.038513,112.220230 721.836975,121.939491   C726.632202,138.594009 730.702881,155.457169 735.249695,172.602936  M698.960571,139.621445   C698.615723,141.702499 697.375488,144.234070 698.141418,145.756210   C699.217957,147.895660 701.727112,150.552185 703.728699,150.641922   C705.750977,150.732574 709.604309,148.064865 709.703491,146.426804   C710.152161,139.014252 708.548462,131.782959 704.066345,124.871590   C702.402161,129.515289 700.737976,134.158997 698.960571,139.621445  z"/>
<path fill="#BBD87C" opacity="1.000000" stroke="none" d=" M306.123444,86.993851   C306.123444,86.993843 306.582520,87.020561 307.080231,87.272324   C309.042908,87.401466 310.507904,87.278854 311.972870,87.156242   C314.966248,87.103630 317.959503,87.040535 320.953064,87.000938   C325.070038,86.946495 328.766693,88.680840 330.392609,92.148102   C333.110626,97.944405 334.891541,104.185005 336.993134,110.264099   C339.041138,116.188194 341.238525,122.075600 342.948700,128.098831   C348.733490,148.472504 354.327545,168.900299 360.003784,189.304840   C360.999023,192.882584 362.122284,196.426605 363.040375,200.023483   C364.779724,206.837952 364.095764,208.717468 359.308929,210.964584   C355.503723,212.750900 351.372528,210.902512 347.857574,206.608459   C341.611115,198.977539 340.567474,189.449646 338.124756,180.505051   C335.086060,169.377838 325.364807,163.567154 314.410767,167.211700   C310.064972,168.657608 309.113220,172.652298 308.055878,176.387863   C306.118347,183.233063 304.532196,190.180649 302.488525,196.992233   C298.507233,210.262054 291.753571,211.344650 279.277069,210.930847   C275.347107,210.800507 271.431732,210.088959 267.504639,210.039246   C251.899689,209.841705 249.420013,201.108963 251.508560,189.016907   C255.660721,164.977112 264.084137,142.114563 271.491089,118.977371   C273.747925,111.927551 275.725677,104.788383 278.157898,97.174797   C278.677429,96.417976 278.837402,96.156342 278.964447,95.874550   C278.964447,95.874550 279.017242,95.437111 279.258911,95.065369   C279.696655,94.450928 279.857971,94.186974 279.984497,93.901756   C279.984497,93.901756 279.993896,93.992409 280.159546,93.840088   C280.549408,93.420288 280.773590,93.152809 280.997772,92.885323   C280.997772,92.885315 280.997406,92.998039 281.156586,92.844498   C281.542267,92.423027 281.768738,92.155098 281.995239,91.887169   C281.995239,91.887169 281.999390,91.999199 282.154541,91.842285   C282.532379,91.415062 282.755096,91.144737 282.977814,90.874413   C282.995544,90.536583 283.148224,90.278610 284.015564,90.054550   C285.578247,90.064224 286.590332,90.299828 287.539429,90.146217   C293.741699,89.142433 299.930359,88.054367 306.123444,86.993851  M319.035919,149.972580   C319.035919,149.972580 319.045715,149.900543 319.217804,150.524796   C320.480988,150.736771 321.744202,150.948746 323.605682,151.013016   C324.016144,150.996368 324.426575,150.979736 325.274170,150.757019   C325.561676,150.603516 325.815186,150.406296 326.546844,149.943222   C326.984375,149.618637 327.421906,149.294052 328.293945,148.669739   C328.519287,148.401321 328.744629,148.132904 329.016388,147.424805   C329.016388,147.424805 329.169098,147.009933 329.557556,146.308655   C329.022491,142.244156 328.487427,138.179642 327.279877,133.722595   C326.426971,130.768372 325.574097,127.814140 324.721222,124.859917   C324.174316,124.849930 323.627380,124.839935 323.080475,124.829948   C321.055145,131.297684 318.903778,137.730774 317.107819,144.261566   C316.736145,145.613144 317.685608,147.328033 318.325684,149.299774   C318.586517,149.526566 318.847382,149.753357 319.035919,149.972580  z"/>
<path fill="#798463" opacity="1.000000" stroke="none" d=" M148.030197,189.976746   C141.327423,203.641022 130.491241,209.743530 115.770103,211.250336   C105.840210,212.266739 96.369415,211.188538 87.082123,208.759293   C71.076126,204.572678 62.206814,193.009232 58.104687,177.532684   C53.671341,160.806488 54.084080,143.902451 56.917229,126.971703   C57.884087,121.193810 58.061241,115.147270 59.942223,109.686028   C64.461449,96.564888 75.447845,90.335846 87.917969,87.247704   C99.300774,84.428810 111.144958,83.562126 122.798515,86.105095   C130.838379,87.859512 138.882187,90.392433 143.369644,98.100296   C145.273636,101.370689 146.421692,105.354797 146.860641,109.136696   C147.436188,114.095726 144.492599,117.388161 140.196335,117.960991   C135.925858,118.530396 133.262558,116.516533 132.082016,111.286888   C130.802277,105.617867 127.737457,101.907021 121.989990,100.411667   C117.136185,99.148834 111.799332,100.900238 109.925591,105.551559   C107.809380,110.804749 105.520142,116.362335 105.204163,121.895920   C104.286896,137.959473 104.141464,154.076691 104.087769,170.174179   C104.071548,175.034439 104.814453,180.049835 106.147240,184.726990   C108.260941,192.144653 118.170639,197.205444 125.379272,194.726486   C130.565948,192.942825 132.414673,188.035721 133.943771,183.314209   C135.247559,179.288422 135.943375,175.069626 137.123795,170.998749   C138.036438,167.851379 140.172714,166.023376 143.645370,165.984894   C147.166183,165.945877 149.546356,167.360275 150.890244,170.743744   C153.618805,177.613266 150.321426,183.506638 148.030197,189.976746  z"/>
<path fill="#BBD87B" opacity="1.000000" stroke="none" d=" M549.964722,100.851997   C549.964722,100.851997 550.019287,100.410179 550.273193,99.926315   C550.669250,98.589996 550.811340,97.737541 550.953491,96.885086   C551.793335,92.271461 555.054260,89.978439 559.192261,89.046844   C567.490234,87.178665 575.912048,87.095642 584.365601,87.946693   C586.331238,88.144577 588.342712,87.886482 591.039490,88.199966   C601.865784,88.698540 611.985657,88.835350 622.105591,88.972160   C626.043091,89.892845 629.766663,93.976982 628.900208,97.152184   C627.789490,101.222801 624.717773,103.438934 620.444092,104.017418   C613.593201,104.944740 606.760010,106.001801 599.299927,107.166611   C598.453186,107.584984 598.225830,107.840782 597.998535,108.096573   C597.998474,108.096558 597.996826,107.995361 597.838623,108.157074   C597.458923,108.590981 597.237488,108.863182 597.015991,109.135391   C597.015991,109.135391 596.980408,109.569664 596.742188,109.946243   C596.310547,110.573647 596.149292,110.843666 596.020203,111.132874   C596.005493,111.548027 595.990723,111.963188 595.703247,113.043716   C595.563110,123.144775 595.695801,132.580460 595.828491,142.016144   C596.275269,148.909103 597.712158,149.940903 604.521545,151.151474   C607.788635,151.732300 611.480103,153.402786 613.594849,155.800735   C615.073059,157.476974 615.164246,161.641876 614.159729,163.948120   C612.621155,167.480286 608.831421,168.514954 604.164795,168.019821   C602.610657,168.304276 601.799744,168.568573 600.988770,168.832855   C600.988770,168.832855 600.573181,168.977478 600.135986,169.103149   C599.416443,169.390228 599.168091,169.593231 598.953857,169.837875   C598.953857,169.837875 598.556152,169.981247 598.129211,170.154785   C597.479614,170.599258 597.256958,170.870193 597.034302,171.141129   C597.034302,171.141129 596.990662,171.585922 596.714355,172.155975   C596.305481,177.483002 596.052307,182.242157 596.138428,186.995163   C596.156494,187.992203 597.423279,188.966629 598.114685,189.951477   C598.114685,189.951477 598.026855,189.974777 598.175415,190.144257   C598.602844,190.529495 598.881714,190.745224 599.160645,190.960968   C607.290527,192.640976 615.493286,194.047775 623.501465,196.184067   C625.628784,196.751541 628.186279,199.325577 628.658936,201.406876   C629.088379,203.298050 627.404419,207.251389 625.864807,207.722458   C620.382263,209.399918 614.563843,209.979965 608.061829,210.704758   C594.115051,210.289490 580.979187,210.114548 567.842773,210.039566   C566.231567,210.030350 564.617249,210.556107 563.004395,210.833954   C552.033508,208.369492 549.082947,204.608734 548.950684,193.551559   C548.892151,188.660110 548.351135,183.774429 548.298157,178.080231   C548.709595,176.463898 548.966614,175.655090 548.977966,174.842850   C549.321716,150.179428 549.641357,125.515694 549.964722,100.851997  z"/>
<path fill="#A0AC84" opacity="1.000000" stroke="none" d=" M525.804504,173.992279   C525.849976,174.443268 525.895447,174.894241 525.735413,175.856979   C525.623901,176.909668 525.717896,177.450607 525.811890,177.991547   C525.856323,178.751373 525.900757,179.511215 525.685059,180.969299   C525.036987,183.105469 524.293579,184.551773 524.327393,185.979691   C524.430420,190.335022 524.833008,194.683273 525.119019,199.034271   C524.697021,208.121979 520.651855,212.234329 511.558716,211.936310   C502.205780,211.629791 492.776978,211.371185 483.560333,209.939514   C477.001587,208.920731 475.012878,205.282425 475.009460,198.737488   C474.994690,170.417313 475.007446,142.097153 475.002594,113.776985   C475.001495,107.463272 474.518921,107.116547 468.127258,106.943817   C464.532410,106.846672 460.919159,106.491158 457.369812,105.911583   C453.838989,105.335037 451.556122,100.655739 452.043732,95.400978   C452.446289,91.062836 454.853088,88.142448 459.216034,88.061172   C484.292023,87.594063 509.371429,87.258827 534.451050,87.081093   C540.010498,87.041695 543.880493,90.175453 544.840332,94.967583   C545.691833,99.218933 544.231445,103.094772 540.302490,104.907845   C537.795410,106.064781 534.585388,105.893799 531.682495,105.958710   C524.674438,106.115417 523.770508,106.715645 524.046997,113.598053   C524.376526,121.800644 525.126709,129.986328 525.585205,138.888153   C525.586792,141.395447 525.697815,143.193954 525.808777,144.992447   C525.851440,153.691513 525.894104,162.390579 525.727783,171.731232   C525.614075,172.912643 525.709290,173.452454 525.804504,173.992279  z"/>
<path fill="#798463" opacity="1.000000" stroke="none" d=" M428.703918,167.975052   C417.947205,169.013489 417.095856,170.088943 416.928253,180.433426   C416.813171,187.536926 416.402130,194.641159 415.922607,201.731491   C415.533020,207.492371 412.115936,210.667923 404.769012,210.838287   C396.349609,211.033539 387.885345,210.568375 379.485016,209.862015   C373.969391,209.398209 370.498047,204.363815 370.072205,196.148346   C369.181580,178.965988 368.484344,161.768356 368.069611,144.568283   C367.756622,131.586761 367.900696,118.590225 368.079285,105.603645   C368.123718,102.373657 368.605865,98.975052 369.733368,95.971764   C371.931000,90.117920 377.178864,88.308266 382.828735,88.058517   C394.747131,87.531670 406.681793,87.022331 418.605865,87.101257   C426.316132,87.152283 434.043152,88.057755 441.716980,88.966225   C446.384216,89.518761 449.228729,92.435547 448.903046,97.393181   C448.652527,101.206764 444.868103,103.481995 439.733093,104.050064   C433.566406,104.732254 427.449310,105.865379 421.312683,106.815842   C417.365082,107.427261 415.845367,109.748177 415.908661,113.715622   C416.065369,123.538277 416.179840,133.370712 415.898438,143.187408   C415.756866,148.127289 418.545349,149.882111 422.478607,150.945526   C424.211487,151.414032 425.994995,151.733475 427.774811,151.982727   C432.558014,152.652573 435.301361,155.759491 435.715454,160.137741   C436.116211,164.375076 433.130768,166.872131 428.703918,167.975052  z"/>
<path fill="#BBD77C" opacity="1.000000" stroke="none" d=" M599.300232,49.004936   C609.994141,49.021160 615.786499,58.497688 609.537170,67.184143   C604.580383,74.074028 597.393066,79.735588 590.261780,84.561798   C584.870911,88.210152 575.627014,80.956596 574.977966,73.586533   C574.639587,69.743965 575.606995,66.607735 578.530273,63.862049   C584.711609,58.056164 590.005676,51.105408 599.300232,49.004936  z"/>
<path fill="#B9CB90" opacity="1.000000" stroke="none" d=" M549.598511,101.063644   C549.641357,125.515694 549.321716,150.179428 548.977966,174.842850   C548.966614,175.655090 548.709595,176.463898 548.365845,177.633560   C548.520508,152.420303 548.876404,126.847794 549.598511,101.063644  z"/>
<path fill="#BCD08A" opacity="1.000000" stroke="none" d=" M563.468262,210.906082   C564.617249,210.556107 566.231567,210.030350 567.842773,210.039566   C580.979187,210.114548 594.115051,210.289490 607.608765,210.631622   C593.288391,210.878876 578.610291,210.928543 563.468262,210.906082  z"/>
<path fill="#979F83" opacity="1.000000" stroke="none" d=" M525.472595,198.786667   C524.833008,194.683273 524.430420,190.335022 524.327393,185.979691   C524.293579,184.551773 525.036987,183.105469 525.619019,181.345490   C525.817505,186.861984 525.821838,192.700516 525.472595,198.786667  z"/>
<path fill="#BECF91" opacity="1.000000" stroke="none" d=" M305.880737,86.626526   C299.930359,88.054367 293.741699,89.142433 287.539429,90.146217   C286.590332,90.299828 285.578247,90.064224 284.239716,89.993240   C290.477966,84.892082 298.108978,85.873695 305.880737,86.626526  z"/>
<path fill="#C3D399" opacity="1.000000" stroke="none" d=" M621.869385,88.600342   C611.985657,88.835350 601.865784,88.698540 591.390625,88.358917   C601.234619,88.180252 611.433838,88.204384 621.869385,88.600342  z"/>
<path fill="#BECF95" opacity="1.000000" stroke="none" d=" M595.904907,141.550781   C595.695801,132.580460 595.563110,123.144775 595.631836,113.346992   C595.882568,122.351738 595.931946,131.718582 595.904907,141.550781  z"/>
<path fill="#BCCE8B" opacity="1.000000" stroke="none" d=" M598.053650,189.529266   C597.423279,188.966629 596.156494,187.992203 596.138428,186.995163   C596.052307,182.242157 596.305481,177.483002 596.635925,172.365234   C597.220093,177.705307 597.606384,183.406174 598.053650,189.529266  z"/>
<path fill="#979F83" opacity="1.000000" stroke="none" d=" M525.887024,144.570480   C525.697815,143.193954 525.586792,141.395447 525.666504,139.301910   C525.893250,140.720764 525.929260,142.434647 525.887024,144.570480  z"/>
<path fill="#BECF91" opacity="1.000000" stroke="none" d=" M311.564941,87.083160   C310.507904,87.278854 309.042908,87.401466 307.298370,87.345062   C308.398193,87.114067 309.777588,87.062073 311.564941,87.083160  z"/>
<path fill="#B9CB90" opacity="1.000000" stroke="none" d=" M550.642334,97.054573   C550.811340,97.737541 550.669250,98.589996 550.348145,99.716721   C550.223083,99.068672 550.277100,98.146362 550.642334,97.054573  z"/>
<path fill="#BCCE8B" opacity="1.000000" stroke="none" d=" M601.337402,168.905869   C601.799744,168.568573 602.610657,168.304276 603.748657,168.036896   C603.279175,168.348831 602.482605,168.663849 601.337402,168.905869  z"/>
<path fill="#979F83" opacity="1.000000" stroke="none" d=" M525.876404,173.666107   C525.709290,173.452454 525.614075,172.912643 525.659058,172.196686   C525.848938,172.460358 525.898621,172.900131 525.876404,173.666107  z"/>
<path fill="#979F83" opacity="1.000000" stroke="none" d=" M525.885437,177.665070   C525.717896,177.450607 525.623901,176.909668 525.670837,176.192444   C525.860901,176.456985 525.909973,176.897797 525.885437,177.665070  z"/>
<path fill="#BECF91" opacity="1.000000" stroke="none" d=" M282.716125,90.972694   C282.755096,91.144737 282.532379,91.415062 282.098511,91.844276   C282.076385,91.692436 282.265442,91.381706 282.716125,90.972694  z"/>
<path fill="#BECF91" opacity="1.000000" stroke="none" d=" M281.721802,91.967209   C281.768738,92.155098 281.542267,92.423027 281.100220,92.844223   C281.072571,92.680740 281.260468,92.363998 281.721802,91.967209  z"/>
<path fill="#BECF95" opacity="1.000000" stroke="none" d=" M596.275696,111.032135   C596.149292,110.843666 596.310547,110.573647 596.666260,110.150436   C596.729431,110.295830 596.630310,110.613617 596.275696,111.032135  z"/>
<path fill="#BECF95" opacity="1.000000" stroke="none" d=" M597.270386,109.024857   C597.237488,108.863182 597.458923,108.590981 597.889221,108.156067   C597.906921,108.300346 597.715820,108.607338 597.270386,109.024857  z"/>
<path fill="#BECF95" opacity="1.000000" stroke="none" d=" M598.260376,108.013893   C598.225830,107.840782 598.453186,107.584984 598.890747,107.181633   C598.908081,107.333122 598.715088,107.632164 598.260376,108.013893  z"/>
<path fill="#BCCE8B" opacity="1.000000" stroke="none" d=" M599.233032,169.880768   C599.168091,169.593231 599.416443,169.390228 599.917114,169.125916   C599.927734,169.323227 599.719971,169.623459 599.233032,169.880768  z"/>
<path fill="#BCCE8B" opacity="1.000000" stroke="none" d=" M597.290649,171.037598   C597.256958,170.870193 597.479614,170.599258 597.919006,170.177063   C597.939453,170.328552 597.743164,170.631302 597.290649,171.037598  z"/>
<path fill="#BECF91" opacity="1.000000" stroke="none" d=" M280.730194,92.973679   C280.773590,93.152809 280.549408,93.420288 280.114197,93.844543   C280.089661,93.688225 280.276154,93.375122 280.730194,92.973679  z"/>
<path fill="#BECF91" opacity="1.000000" stroke="none" d=" M279.725464,93.989487   C279.857971,94.186974 279.696655,94.450928 279.336975,94.859367   C279.271088,94.709137 279.368744,94.393173 279.725464,93.989487  z"/>
<path fill="#BCCE8B" opacity="1.000000" stroke="none" d=" M599.058838,190.697372   C598.881714,190.745224 598.602844,190.529495 598.164612,190.100128   C598.322571,190.068924 598.639832,190.251358 599.058838,190.697372  z"/>
<path fill="#BECF91" opacity="1.000000" stroke="none" d=" M278.713928,95.969185   C278.837402,96.156342 278.677429,96.417976 278.323975,96.825005   C278.263397,96.681641 278.363373,96.372726 278.713928,95.969185  z"/>
<path fill="#BDD28E" opacity="1.000000" stroke="none" d=" M329.363342,146.659302   C328.778412,142.996246 328.387695,138.982559 327.974670,134.542007   C328.487427,138.179642 329.022491,142.244156 329.363342,146.659302  z"/>
<path fill="#BDD28E" opacity="1.000000" stroke="none" d=" M319.131775,150.212677   C320.133026,150.270172 321.220367,150.639801 322.657532,151.085068   C321.744202,150.948746 320.480988,150.736771 319.131775,150.212677  z"/>
<path fill="#BDD28E" opacity="1.000000" stroke="none" d=" M328.076691,148.819611   C328.056305,148.665970 328.253174,148.362473 328.710022,147.961731   C328.744629,148.132904 328.519287,148.401321 328.076691,148.819611  z"/>
<path fill="#BDD28E" opacity="1.000000" stroke="none" d=" M318.175934,149.087616   C318.327209,149.069611 318.628265,149.263748 319.018738,149.719025   C318.847382,149.753357 318.586517,149.526566 318.175934,149.087616  z"/>
<path fill="#BDD28E" opacity="1.000000" stroke="none" d=" M325.055603,150.860046   C325.051544,150.669434 325.266022,150.375778 325.757599,150.123718   C325.815186,150.406296 325.561676,150.603516 325.055603,150.860046  z"/>
</svg>